<svg class="wi wi-brand svg-theme" width="360" height="116" viewBox="0 0 360 116" xmlns="http://www.w3.org/2000/svg">
  <path class="fill-theme" d="M131.27 71.915c0 19.232-15.472 34.878-34.7 34.878-7.745 0-14.97-2.57-20.765-6.858 6.48-7.542 10.336-17.32 10.336-28.02l.015-55.5C86.155 7.364 78.793 0 69.745 0c-9.05 0-16.41 7.364-16.41 16.414l-.015 55.5c0 10.7 4.116 20.48 10.594 28.02-5.793 4.29-13.02 6.86-20.764 6.86-19.23 0-34.958-15.647-34.958-34.88V4.21H-.013v67.705C-.013 95.67 19.483 115 43.237 115c10.07 0 19.41-3.5 26.752-9.313C77.332 111.5 86.455 115 96.526 115c23.752 0 42.947-19.33 42.947-43.085V4.21h-8.205v67.705zm-61.54 22.43c-5.11-6.07-8.205-13.892-8.205-22.43l.014-55.5c0-4.527 3.68-8.207 8.205-8.207 4.524 0 8.205 3.68 8.205 8.206l-.015 55.5c0 8.54-3.093 16.36-8.205 22.43zM164.103 3.987h8.205v108.84h-8.205V3.986zM244.143 2.09c-16.19 0-30.504 8.193-39.015 20.652V3.987h-8.205v108.84h8.205V49.324h.005c0-21.512 17.5-39.014 39.01-39.014V2.09"></path>
  <path class="fill-theme" d="M265.323 95.457l73.744-73.826c-.89-1.028-1.82-2.033-2.795-3.01-21.995-22.018-57.782-22.018-79.776 0-21.994 22.02-21.994 57.847 0 79.866 21.99 22.016 57.77 22.02 79.766.01l-5.802-5.81c-17.818 17.83-46.22 18.75-65.137 2.77zm-3.026-71.028c17.82-17.84 46.228-18.763 65.147-2.78l-67.922 68c-15.966-18.942-15.043-47.383 2.775-65.22z"></path>
</svg>